JUST TEENS PORN AMATEUR TEEN SEX-SILVERDUST-{HKRG} 
http://img3.immage.de/110376image10171406.jpg 
http://img1.immage.de/110391image10173078.jpg


[img]http://img3.immage.de/110376image10171406.jpg[/img]

[img]http://img1.immage.de/110391image10173078.jpg[/img]
 
http://www.leetleech.org/images/97290487188333659391.jpg
    	http://www.leetleech.org/images/06659581596630627597.png
    	http://www.leetleech.org/images/95638850939063339622.png
    	http://www.leetleech.org/images/42675321880577337227.png


Format                           : Windows Media
File size                        : 604 MiB
Duration                         : 17mn 41s
Overall bit rate mode            : Variable
Overall bit rate                 : 4 773 Kbps
Maximum Overall bit rate         : 6 282 Kbps
Encoded date                     : UTC 2007-04-10 16:13:20.718

Video
ID                               : 2
Format                           : VC-1
Format profile                   : MP@HL
Codec ID                         : WMV3
Codec ID/Info                    : Windows Media Video 9
Codec ID/Hint                    : WMV3
Description of the codec         : Windows Media Video 9 - Professional
Duration                         : 17mn 41s
Bit rate mode                    : Variable
Bit rate                         : 4 500 Kbps
Width                            : 1 280 pixels
Height                           : 720 pixels
Display aspect ratio             : 16:9
Frame rate                       : 25.000 fps
Bit depth                        : 8 bits
Scan type                        : Progressive
Compression mode                 : Lossy
Bits/(Pixel*Frame)               : 0.195
Stream size                      : 569 MiB (94%)

Audio
ID                               : 1
Format                           : WMA
Format version                   : Version 2
Codec ID                         : 161
Codec ID/Info                    : Windows Media Audio
Description of the codec         : Windows Media Audio 9.2 - 256 kbps, 44 kHz, stereo 2-pass CBR
Duration                         : 17mn 41s
Bit rate mode                    : Constant
Bit rate                         : 256 Kbps
Channel(s)                       : 2 channels
Sampling rate                    : 44.1 KHz
Bit depth                        : 16 bits
Stream size                      : 32.4 MiB (5%)
NJOI